<mxfile host="app.diagrams.net" modified="2024-06-28T01:24:28.026Z" agent="Mozilla/5.0 (Windows NT 10.0; Win64; x64) AppleWebKit/537.36 (KHTML, like Gecko) Chrome/125.0.0.0 Safari/537.36" version="24.6.2" etag="MlJP5sqTykcucaBezBfi" type="github">
  <diagram name="Page-1" id="OAF99Gb11N7qUKuKDzYt">
    <mxGraphModel>
      <root>
        <mxCell id="0" />
        <mxCell id="1" parent="0" />
      </root>
    </mxGraphModel>
  </diagram>
</mxfile>
